PathFileType	4	(X/Y/Z)	Walk1_0-155.trc
DataRate	CameraRate	NumFrames	NumMarkers	Units	OrigDataRate	OrigDataStartFrame	OrigNumFrames
30	30	7	22	m	30	116	155
Frame#	Time	Hip			RHip			RKnee			RAnkle			RBigToe			RSmallToe			RHeel			LHip			LKnee			LAnkle			LBigToe			LSmallToe			LHeel			Neck			Head			Nose			RShoulder			RElbow			RWrist			LShoulder			LElbow			LWrist		
		X1	Y1	Z1	X2	Y2	Z2	X3	Y3	Z3	X4	Y4	Z4	X5	Y5	Z5	X6	Y6	Z6	X7	Y7	Z7	X8	Y8	Z8	X9	Y9	Z9	X10	Y10	Z10	X11	Y11	Z11	X12	Y12	Z12	X13	Y13	Z13	X14	Y14	Z14	X15	Y15	Z15	X16	Y16	Z16	X17	Y17	Z17	X18	Y18	Z18	X19	Y19	Z19	X20	Y20	Z20	X21	Y21	Z21	X22	Y22	Z22
117	3.9	0.982341754157295	0.9085574450847473	0.42186545911070655	0.9629969563071217	0.888452616354806	0.5173592801232673	0.9049839006360436	0.5227157591354854	0.4801822563343091	0.8455637290507744	0.11659182697930583	0.4426005762819075	1.0417097529941892	0.0426047415146436	0.45695491515229536	1.0032459830577225	0.03471870031336172	0.500749931657364	0.7898381553959801	0.040315612693718604	0.42071361827945636	0.9958296997079515	0.891760697047383	0.30308384739472927	1.1731175364176551	0.5675291590663849	0.2967022857544342	1.0158633175312133	0.22645479386050793	0.3167243578841818	1.192035697704541	0.08989248769769362	0.3175733746165798	1.141415548627537	0.10547326554992176	0.26026897288633943	0.9680453563128495	0.17101897086089357	0.3305682958465511	0.9142103200076256	1.5993030259203793	0.4029182576233121	1.0034602226447997	1.8512177611393976	0.41866734726995786	1.0773904898860078	1.6858867617365425	0.40448132848107277	0.8791773211501658	1.4742122763809464	0.5763572438069631	0.9933140284966235	1.186604618457157	0.6553556851370297	1.2329973456386802	0.9678879567759874	0.6588105032673165	0.884922744249649	1.4819011153621804	0.21402539727078176	0.8841562564833637	1.1628462961466601	0.15276455126666963	0.8904139666093716	0.9148606486490497	0.12936619634971983
118	3.933333333333333	1.0195292829084588	0.9063882436795533	0.42251400388812815	0.9967535137501184	0.8873155257048863	0.517106068737087	0.9195689222661418	0.5222085496310487	0.4794590675970754	0.8491937436212793	0.11851110962147325	0.44365094600253074	1.0433917851614838	0.04014128383699211	0.4579880863227522	1.0000121866103713	0.038222191424983155	0.504623362984823	0.7949061568448957	0.04117354940044541	0.42007470271445985	1.0361982986519607	0.8895553645080617	0.3029699405532723	1.2239929139199395	0.5648277481804439	0.3042770465504485	1.1360880273250293	0.19711771189090646	0.31929463269981834	1.3404911405957816	0.09090750042039936	0.31692303085668766	1.2929334218628434	0.10098634223698526	0.2622392355088716	1.0991819856738874	0.1306267303773091	0.33347571413103544	0.9520405597256075	1.598735818597297	0.39827885910404537	1.0542987737688472	1.847627834304264	0.40875281111302236	1.128638409412089	1.6808661359929309	0.4007042908792471	0.9229476977811469	1.4747844098859622	0.5759013467323639	1.047960843797226	1.191048621517405	0.660315314935031	1.3014851008354655	0.984681565107254	0.6556826143526271	0.9186716296991244	1.4791921539211514	0.20966378338781996	0.9143682173275246	1.1606492933209658	0.15302629186394043	0.9141159757305745	0.9108980929385344	0.1240943150469864
119	3.966666666666667	1.0592031428770938	0.9014628033868781	0.42281440567585576	1.0338786120603627	0.8827045481615926	0.5165063181847692	0.9382234855349991	0.5195567027587152	0.4788078609106107	0.8527615581596881	0.12029313527859131	0.44484723270733423	1.0461533061529364	0.03592249946720928	0.4586995772312537	0.9954236825982312	0.038720510193191504	0.5078972473606843	0.7982478338465939	0.04261577420239275	0.42074853504840193	1.0781110249023762	0.8835296509771752	0.30428900147736043	1.2679366549550861	0.5558353038571744	0.3102997642162202	1.25169589363214	0.1732768540134676	0.31984539203624085	1.4707403148389173	0.09424588648249488	0.31340354836035905	1.430292517355842	0.09697075446965996	0.262296556436734	1.2245925528277308	0.09918428292610895	0.3334284784697733	0.9927527292168185	1.595202290493087	0.394980903040523	1.1036125699381936	1.8418099084059287	0.4021315367023508	1.1806686420136177	1.673847980299232	0.39762645160606214	0.9675176473265638	1.472273171953085	0.5743945713128014	1.1005375867864302	1.1912553460396351	0.6639380917208093	1.359726067587845	0.9987067547914438	0.6520942527324819	0.9569491939284247	1.4742376304915927	0.20682890854611258	0.9473354919962124	1.1564428122250596	0.1540839159965485	0.9448631955500865	0.9032654733847449	0.11716747656159658
120	4.0	1.1014495209313633	0.8945574979413731	0.42261775537243357	1.0742976065080547	0.875738155773091	0.5155436251693787	0.961817683252288	0.5152621962579761	0.4782637277846098	0.8564394131266756	0.1229612732742264	0.4460799398323461	1.0488112090424613	0.030805556215580218	0.4593929232720311	0.9901254719388582	0.03624449212916523	0.5094504550836796	0.7994897245765902	0.04584211016948089	0.4223516665128655	1.1215070747044	0.8748712259471252	0.30641448341269134	1.308471295456417	0.543053343413708	0.31481683666231547	1.3561323735616981	0.1556663292508381	0.3193098216801623	1.5784660121553025	0.09932906437108557	0.30896450610852716	1.5474926064724495	0.09274130815761257	0.26108197764835195	1.3368122908470277	0.07711622763907888	0.33162857985866434	1.0354296834251409	1.5891163733084286	0.39224978530536564	1.149342768652498	1.83551364830437	0.4024207783738321	1.2306213031740894	1.6656900680092626	0.39559015277440923	1.0128266738512512	1.467005415120195	0.5718895191490867	1.151085349386477	1.1875054466064123	0.6654245026597891	1.412666643521808	1.0086662840582838	0.647456111877074	0.9997511962793764	1.4676443866874276	0.20540221667507388	0.9822150336039489	1.1503169519027887	0.15555550200588583	0.9816754130690132	0.8928453895617523	0.10956490648387705
121	4.033333333333333	1.146416068284119	0.8866398712516317	0.4218716714694607	1.118205873873034	0.8677253870538233	0.5142874789600472	0.991723550742201	0.5098576438525627	0.47795017608609536	0.8606983808673027	0.1278989919985842	0.44707530355018776	1.0500872176706029	0.025131976987015598	0.45984118179076783	0.985206089764599	0.032173120132733206	0.5089210469519948	0.7997047229871941	0.05266365736759662	0.42447949842666566	1.166763805415058	0.8651233681668336	0.30839975654704377	1.3503299619372742	0.5298062394239357	0.3190599630734391	1.4439348401831618	0.1426181623768581	0.3189667856562084	1.6626698508265818	0.1027547924040299	0.3058676171597065	1.6416461375576146	0.08638619841918488	0.26042445036886985	1.428961964721456	0.06196406963339429	0.3297150138200218	1.0790840996826456	1.581291445513246	0.38930322222069264	1.1911961009608145	1.8296392128874746	0.40901438403170276	1.2776438132039285	1.6575822088655623	0.3937783492635618	1.058513393993231	1.4596606121488824	0.5683625142036005	1.1994035027410421	1.1806415323011383	0.6641173571440756	1.4638244392334245	1.0138412992073924	0.6422417139409257	1.0455097750042461	1.4600412496842647	0.2044353677437678	1.0184334222208722	1.1427031644693295	0.15647278461674077	1.0234985565694126	0.8813548353628997	0.10255346676370258
122	4.066666666666666	1.1942489490069825	0.8786996574664085	0.42044943514676847	1.1659942122122708	0.8598773964656977	0.5128119946256113	1.0298431040218996	0.503932638324345	0.4781775014907575	0.8669807748449055	0.13669585921755928	0.4477546915028153	1.0491896793746653	0.01889805966022935	0.45961358327983126	0.9814210855822096	0.028215852031968237	0.5066837843226168	0.801064224368823	0.06549452213211356	0.42684719142463223	1.2143312379504747	0.8559284641497391	0.3091617646671148	1.3959162519048156	0.5191364697909692	0.32347795540917745	1.512146756453326	0.13222200069698906	0.31951794969168135	1.7248677715376723	0.10097290656838082	0.3051335080096506	1.7118917087886683	0.07709943481146642	0.2615537720150557	1.4970716239455033	0.05116719953729418	0.32849943673623366	1.1229706649857423	1.5728646304172644	0.3856731640125333	1.2306665469394247	1.824097190531504	0.4172872936853304	1.322305367333728	1.6508253084596543	0.39106978247893304	1.104060628265223	1.4512530643711843	0.5638040316317264	1.2451138713823822	1.171937819172109	0.6598145389536781	1.5132415657639926	1.0138510546903858	0.6370488895850214	1.0919863913765389	1.4521414267908528	0.2027452551868286	1.0561652108773232	1.1344382634706964	0.1554809016176785	1.0700761229194182	0.8705790516915038	0.09730217882050664
123	4.1	1.2447123777514573	0.8717249116382597	0.4180869121221435	1.2176368543287646	0.8532769038111317	0.5110343767865134	1.0781041364737054	0.4981713728143133	0.47932540967072446	0.878309517000911	0.1509445366839177	0.4486877186123784	1.0461428303565483	0.012781806345867154	0.4585043611128895	0.9791055175440256	0.025932698086416704	0.5037488237230242	0.8067646058418225	0.08668643559369175	0.42946834304711784	1.2639905154311828	0.8487531972097521	0.30785886951184666	1.4442967620276321	0.5128595170881536	0.3273192754420231	1.560872852322196	0.12359248636636336	0.320847438282999	1.7681296390557941	0.09291212665052721	0.3062735110411969	1.7591182961962764	0.06621224185502748	0.2642902643360715	1.541613235045783	0.04329185297915203	0.32775645781725177	1.1665900982144795	1.565135439914788	0.38127408685050257	1.269529488037513	1.818845990636729	0.42286802966483583	1.3655895901615658	1.6465572444171486	0.3865766767734981	1.1490118925833326	1.4430263370547445	0.5584394538342958	1.2879605397799292	1.1628718583173852	0.6528841122067242	1.5581087038371995	1.0085490001343411	0.6320627654142873	1.1379369747231007	1.4448984905307638	0.1999845367423919	1.0966162759389946	1.1264795295582926	0.15190052022766234	1.1220316959726406	0.8617493724569636	0.09466441025598413
